<?xml version="1.0" encoding="UTF-8" standalone="no"?>
<svg width="264px" height="153px" viewBox="0 0 264 153" version="1.1" xmlns="http://www.w3.org/2000/svg" xmlns:xlink="http://www.w3.org/1999/xlink" style="background: #FFFFFF;">
    <!-- Generator: Sketch 3.7.2 (28276) - http://www.bohemiancoding.com/sketch -->
    <title>button-dotaznik</title>
    <desc>Created with Sketch.</desc>
    <defs></defs>
    <g id="Page-1" stroke="none" stroke-width="1" fill="none" fill-rule="evenodd">
        <path d="M65.972,87 C72.316,87 75.566,82.398 75.566,76.86 C75.566,71.348 72.316,66.72 65.972,66.72 L57.184,66.72 C56.846,66.72 56.56,67.006 56.56,67.344 L56.56,86.376 C56.56,86.714 56.846,87 57.184,87 L65.972,87 Z M70.314,76.86 C70.314,79.902 68.676,81.982 65.582,81.982 L62.28,81.982 C61.994,81.982 61.76,81.748 61.76,81.462 L61.76,72.284 C61.76,71.998 61.994,71.764 62.28,71.764 L65.582,71.764 C68.676,71.764 70.314,73.818 70.314,76.86 L70.314,76.86 Z M87.63,87.39 C93.558,87.39 98.394,82.658 98.394,76.86 C98.394,71.062 93.558,66.33 87.63,66.33 C81.78,66.33 76.866,71.062 76.866,76.86 C76.866,82.658 81.78,87.39 87.63,87.39 L87.63,87.39 Z M87.63,71.348 C90.75,71.348 93.142,73.792 93.142,76.86 C93.142,79.928 90.75,82.372 87.63,82.372 C84.588,82.372 82.118,79.928 82.118,76.86 C82.118,73.792 84.588,71.348 87.63,71.348 L87.63,71.348 Z M104.686,71.764 C104.972,71.764 105.206,71.998 105.206,72.284 L105.206,86.376 C105.206,86.714 105.492,87 105.83,87 L109.782,87 C110.12,87 110.406,86.714 110.406,86.376 L110.406,72.284 C110.406,71.998 110.64,71.764 110.926,71.764 L116.1,71.764 C116.438,71.764 116.724,71.478 116.724,71.14 L116.724,67.344 C116.724,67.006 116.438,66.72 116.1,66.72 L99.512,66.72 C99.174,66.72 98.888,67.006 98.888,67.344 L98.888,71.14 C98.888,71.478 99.174,71.764 99.512,71.764 L104.686,71.764 Z M114.15,86.428 C114.046,86.688 114.228,87 114.54,87 L118.96,87 C119.324,87 119.662,86.766 119.792,86.428 L120.52,84.53 C120.624,84.244 120.91,84.036 121.222,84.036 L128.164,84.036 C128.476,84.036 128.762,84.244 128.866,84.53 L129.594,86.428 C129.724,86.766 130.062,87 130.426,87 L134.846,87 C135.158,87 135.34,86.688 135.236,86.428 L127.514,67.292 C127.384,66.954 127.02,66.72 126.656,66.72 L122.756,66.72 C122.392,66.72 122.028,66.954 121.898,67.292 L114.15,86.428 Z M122.99,79.33 C122.73,79.33 122.574,79.07 122.652,78.836 L124.524,73.87 C124.576,73.688 124.836,73.688 124.888,73.87 L126.734,78.836 C126.812,79.07 126.656,79.33 126.396,79.33 L122.99,79.33 Z M145.194,71.764 C145.402,71.764 145.506,71.998 145.376,72.154 L136.666,82.71 C136.432,83.022 136.276,83.438 136.276,83.828 L136.276,86.376 C136.276,86.714 136.562,87 136.9,87 L152.864,87 C153.202,87 153.488,86.714 153.488,86.376 L153.488,82.606 C153.488,82.268 153.202,81.982 152.864,81.982 L144.518,81.982 C144.31,81.982 144.206,81.748 144.336,81.592 L153.072,71.01 C153.306,70.698 153.462,70.282 153.462,69.892 L153.462,67.344 C153.462,67.006 153.176,66.72 152.838,66.72 L137.212,66.72 C136.874,66.72 136.588,67.006 136.588,67.344 L136.588,71.14 C136.588,71.478 136.874,71.764 137.212,71.764 L145.194,71.764 Z M161.184,76.21 C161.184,76.028 161.392,75.95 161.496,76.106 L169.842,86.506 C170.076,86.818 170.466,87 170.856,87 L174.002,87 C174.34,87 174.626,86.714 174.626,86.376 L174.626,67.344 C174.626,67.006 174.34,66.72 174.002,66.72 L170.076,66.72 C169.738,66.72 169.452,67.006 169.452,67.344 L169.452,77.536 C169.452,77.718 169.244,77.796 169.14,77.64 L160.794,67.214 C160.56,66.902 160.17,66.72 159.78,66.72 L156.608,66.72 C156.27,66.72 155.984,67.006 155.984,67.344 L155.984,86.376 C155.984,86.714 156.27,87 156.608,87 L160.56,87 C160.898,87 161.184,86.714 161.184,86.376 L161.184,76.21 Z M177.746,86.376 C177.746,86.714 178.032,87 178.37,87 L182.322,87 C182.66,87 182.946,86.714 182.946,86.376 L182.946,67.344 C182.946,67.006 182.66,66.72 182.322,66.72 L178.37,66.72 C178.032,66.72 177.746,67.006 177.746,67.344 L177.746,86.376 Z M176.108,62.404 C175.874,62.586 175.796,62.924 175.952,63.158 L177.174,65.29 C177.33,65.524 177.642,65.628 177.902,65.524 L184.506,62.482 C184.74,62.378 184.844,62.066 184.714,61.832 L182.712,58.348 C182.582,58.114 182.244,58.036 182.036,58.218 L176.108,62.404 Z M190.642,87 C190.98,87 191.266,86.714 191.266,86.376 L191.266,81.41 C191.266,81.098 191.396,80.734 191.604,80.5 L192.306,79.746 C192.462,79.538 192.8,79.564 192.956,79.772 L197.87,86.506 C198.078,86.792 198.468,87 198.858,87 L204.058,87 C204.318,87 204.474,86.714 204.318,86.506 L196.57,75.846 C196.388,75.612 196.414,75.274 196.622,75.04 L203.85,67.188 C204.006,67.006 203.876,66.72 203.642,66.72 L198.182,66.72 C197.792,66.72 197.402,66.902 197.142,67.188 L191.604,73.324 C191.5,73.454 191.266,73.376 191.266,73.194 L191.266,67.344 C191.266,67.006 190.98,66.72 190.642,66.72 L186.69,66.72 C186.352,66.72 186.066,67.006 186.066,67.344 L186.066,86.376 C186.066,86.714 186.352,87 186.69,87 L190.642,87 Z" id="DOTAZNík" fill="#000000"></path>
        <path d="M104.703125,135.65625 C104.703125,135.65625 25.1640625,156.575521 25.1640625,149.65625 C25.1640625,140.898438 1.7890625,85.7578125 1.7890625,85.7578125 L13.9140625,12.890625 L161.671875,1.6484375 L248.765625,19.921875 L261.890625,85.7578125 L236.523438,127.65625 L192.5,135.65625 L104.703125,135.65625 Z" id="Path-78" stroke="#000000" stroke-width="3"></path>
    </g>
</svg>