<?xml version="1.0" encoding="UTF-8" standalone="no"?>
<svg width="32px" height="32px" viewBox="0 0 32 32" version="1.1" xmlns="http://www.w3.org/2000/svg" xmlns:xlink="http://www.w3.org/1999/xlink">
    <!-- Generator: Sketch 3.7.2 (28276) - http://www.bohemiancoding.com/sketch -->
    <title>facebook</title>
    <desc>Created with Sketch.</desc>
    <defs></defs>
    <g id="Page-1" stroke="none" stroke-width="1" fill="none" fill-rule="evenodd">
        <path d="M28,0 L4,0 C1.801,0 0,1.801 0,4 L0,28 C0,30.201 1.801,31.998 3.998,31.998 L16.136,31.998 L16.136,20.524 L12.303,20.524 L12.303,15.527 L16.136,15.527 L16.136,13.023 C16.136,9.163 18.986,6.14 22.625,6.14 L26.156,6.14 L26.156,11.784 L22.995,11.784 C22.169,11.784 21.927,12.259 21.927,12.914 L21.927,15.525 L26.156,15.525 L26.156,20.524 L21.927,20.524 L21.927,32 L27.998,32 C30.199,32 31.996,30.201 31.996,28.002 L31.996,4 C32,1.801 30.201,0 28,0" fill="#000000"></path>
    </g>
</svg>