<?xml version="1.0" encoding="UTF-8" standalone="no"?>
<svg width="32px" height="32px" viewBox="0 0 32 32" version="1.1" xmlns="http://www.w3.org/2000/svg" xmlns:xlink="http://www.w3.org/1999/xlink">
    <!-- Generator: Sketch 3.7.2 (28276) - http://www.bohemiancoding.com/sketch -->
    <title>github</title>
    <desc>Created with Sketch.</desc>
    <defs></defs>
    <g id="Page-1" stroke="none" stroke-width="1" fill="none" fill-rule="evenodd">
        <path d="M32,16 C32,18.903 31.285,21.58 29.854,24.031 C28.424,26.482 26.482,28.424 24.031,29.854 C21.58,31.285 18.903,32 16,32 C13.097,32 10.42,31.285 7.969,29.854 C5.518,28.424 3.576,26.482 2.146,24.031 C0.715,21.58 0,18.903 0,16 C0,13.097 0.715,10.42 2.146,7.969 C3.576,5.518 5.518,3.576 7.969,2.146 C10.42,0.715 13.097,0 16,0 C18.903,0 21.58,0.715 24.031,2.146 C26.482,3.576 28.424,5.518 29.854,7.969 C31.285,10.42 32,13.097 32,16 M29.333,16 C29.333,14.194 28.979,12.469 28.271,10.823 C27.563,9.177 26.615,7.76 25.427,6.573 C24.24,5.385 22.823,4.437 21.177,3.729 C19.531,3.021 17.806,2.667 16,2.667 C14.194,2.667 12.469,3.021 10.823,3.729 C9.177,4.437 7.76,5.385 6.573,6.573 C5.385,7.76 4.438,9.177 3.729,10.823 C3.021,12.469 2.667,14.194 2.667,16 C2.667,18.903 3.531,21.531 5.26,23.885 C6.99,26.24 9.236,27.847 12,28.708 L12,25.188 C11.25,25.285 10.771,25.333 10.563,25.333 C9.035,25.333 7.972,24.639 7.375,23.25 C7.167,22.722 6.917,22.285 6.625,21.937 C6.556,21.854 6.41,21.722 6.188,21.542 C5.965,21.361 5.768,21.194 5.594,21.042 C5.42,20.889 5.333,20.778 5.333,20.708 C5.333,20.542 5.528,20.458 5.917,20.458 C6.319,20.458 6.677,20.559 6.99,20.76 C7.302,20.962 7.566,21.205 7.781,21.49 C7.997,21.774 8.215,22.062 8.438,22.354 C8.66,22.646 8.941,22.893 9.281,23.094 C9.622,23.295 10.014,23.396 10.458,23.396 C11.042,23.396 11.604,23.299 12.146,23.104 C12.368,22.312 12.806,21.694 13.458,21.25 C11.153,21.028 9.444,20.448 8.333,19.51 C7.222,18.573 6.667,17.014 6.667,14.833 C6.667,13.194 7.174,11.819 8.188,10.708 C7.993,10.125 7.896,9.542 7.896,8.958 C7.896,8.153 8.083,7.396 8.458,6.687 C9.25,6.687 9.951,6.823 10.563,7.094 C11.174,7.365 11.875,7.785 12.667,8.354 C13.722,8.104 14.896,7.979 16.187,7.979 C17.299,7.979 18.361,8.09 19.375,8.313 C20.167,7.757 20.865,7.347 21.469,7.083 C22.073,6.819 22.764,6.687 23.542,6.687 C23.917,7.396 24.104,8.153 24.104,8.958 C24.104,9.556 24.007,10.132 23.812,10.688 C24.826,11.826 25.333,13.208 25.333,14.833 C25.333,17.014 24.778,18.58 23.667,19.531 C22.556,20.482 20.854,21.062 18.562,21.271 C19.521,21.924 20,22.833 20,24 L20,28.708 C22.764,27.847 25.01,26.24 26.74,23.885 C28.469,21.531 29.333,18.903 29.333,16" fill="#000000"></path>
    </g>
</svg>